<?xml version="1.0" encoding="UTF-8"?>
<svg width="198px" height="89px" viewBox="0 0 198 89" version="1.1" xmlns="http://www.w3.org/2000/svg" xmlns:xlink="http://www.w3.org/1999/xlink">
    <!-- Generator: Sketch 57.1 (83088) - https://sketch.com -->
    <title>Group 42</title>
    <desc>Created with Sketch.</desc>
    <defs>
        <polygon id="path-1" points="0.114166256 0.300436364 14.7788333 0.300436364 14.7788333 35.7606003 0.114166256 35.7606003"></polygon>
        <polygon id="path-3" points="0 0.163376675 32.8375747 0.163376675 32.8375747 24.7319593 0 24.7319593"></polygon>
        <polygon id="path-5" points="0.2047 0.0229626168 14.8376667 0.0229626168 14.8376667 34.8917944 0.2047 34.8917944"></polygon>
    </defs>
    <g id="Dashboard" stroke="none" stroke-width="1" fill="none" fill-rule="evenodd">
        <g id="Clientes_dtp" transform="translate(-100.000000, -38.000000)">
            <g id="Group-42" transform="translate(100.000000, 38.000000)">
                <g id="Group-3" transform="translate(39.000000, 0.000000)">
                    <mask id="mask-2" fill="white">
                        <use xlink:href="#path-1"></use>
                    </mask>
                    <g id="Clip-2"></g>
                    <path d="M2.60283333,32.8210364 L0.114166256,5.26565455 C0.112833333,2.54110909 3.35783333,0.301909091 7.43883333,0.30027183 C11.5271667,0.298636364 14.7778333,2.53554545 14.7788333,5.26041818 L12.3061667,32.8174364 C12.0265,34.4776909 9.96316667,35.7596182 7.4495,35.7606003 C4.94616667,35.7612545 2.8785,34.4809636 2.60283333,32.8210364" id="Fill-1" fill="#EDC500" mask="url(#mask-2)"></path>
                </g>
                <g id="Group-6" transform="translate(0.000000, 22.000000)">
                    <mask id="mask-4" fill="white">
                        <use xlink:href="#path-3"></use>
                    </mask>
                    <g id="Clip-5"></g>
                    <path d="M27.0476168,24.5788961 L2.00649802,13.0032468 C-0.341076238,11.6535714 -0.699175248,7.80714286 1.3063099,4.36201299 C3.30656733,0.91461039 6.83364653,-0.713961039 9.18220099,0.637662338 L31.8032109,16.3886364 C33.1032802,17.4441558 33.1993396,19.8162338 31.9691911,21.937987 C30.7413297,24.0551948 28.6149535,25.1577922 27.0476168,24.5788961" id="Fill-4" fill="#EDC500" mask="url(#mask-4)"></path>
                </g>
                <path d="M32.1257349,60.8366212 C33.3629035,62.991611 33.2679893,65.4061506 31.9618519,66.4945426 L9.23630989,82.519266 C6.87659228,83.8916438 3.32995477,82.2316478 1.31672319,78.7373018 C-0.702091587,75.23404 -0.344767612,71.3183383 2.01363631,69.9383655 L27.1754185,58.15989 C28.7505341,57.5625293 30.8885663,58.6793199 32.1257349,60.8366212" id="Fill-7" fill="#EDC500"></path>
                <path d="M109,51.6193631 L109,66.6859223 C107.720807,66.8951983 106.441294,67 105.162102,67 C103.882588,67 102.603396,66.8951983 101.324203,66.6859223 L101.324203,52.8750189 C101.324203,49.3179826 99.4308826,48.0623268 96.718725,48.0623268 C94.9275989,48.0623268 93.4949543,48.585353 92.6248598,49.1083791 L92.6248598,66.6859223 C91.3456671,66.8951983 90.0661541,67 88.7869614,67 C87.5077687,67 86.2795131,66.8951983 85,66.6859223 L85,45.1324633 C86.8936409,43.4061823 91.2431523,41 97.281275,41 C105.366811,41 109,45.4989419 109,51.6193631" id="Fill-9" fill="#FFFFFF"></path>
                <path d="M135,65.2332486 C133.264159,66.6424421 130.814104,68 127.139182,68 C121.57535,68 117.390094,65.5986192 117.390094,59.543205 L117.390094,49.2069406 L113.255327,49.2069406 C113.102259,48.2150801 113,47.1189681 113,45.9705669 C113,44.9264173 113.102259,43.8822676 113.255327,42.8384448 L117.390094,42.8384448 L117.390094,36.3130815 C118.7169,36.1042516 119.992897,36 121.269213,36 C122.494081,36 123.770078,36.1042516 124.944455,36.3130815 L124.944455,42.8384448 L133.417547,42.838118 C133.622064,43.8299785 133.775133,44.8741281 133.775133,45.9179509 C133.775133,47.0666789 133.622064,48.1108286 133.417547,49.2069406 L124.944455,49.2069406 L124.944455,57.6114464 C124.944455,60.4308139 126.220452,61.3700583 128.466628,61.3700583 C129.895374,61.3700583 131.018622,60.639317 131.835413,59.9082488 C133.315608,60.7961845 134.744992,63.1449493 135,65.2332486" id="Fill-11" fill="#FFFFFF"></path>
                <path d="M155,42.733781 C154.947283,45.3026708 154.205601,47.7137123 152.775617,49.4959863 C151.822405,49.233781 150.868861,49.1287676 149.756836,49.1287676 C148.115322,49.1287676 146.738054,49.4431514 145.890607,49.8628768 L145.890607,67.685288 C144.619768,67.8949866 143.242833,68 141.918945,68 C140.595058,68 139.323887,67.8949866 138,67.685288 L138,45.8267532 C139.747611,44.2541778 143.666225,42 149.174299,42 C151.557495,42 153.516968,42.2622053 155,42.733781" id="Fill-13" fill="#FFFFFF"></path>
                <path d="M168.395768,62.6350334 C169.661498,62.6350334 170.927558,62.4286637 172.193288,62.0675974 L172.193288,57.5797829 C170.927558,57.2187166 169.503323,57.0120239 167.867747,57.0120239 C165.389122,57.0120239 163.859547,57.8375028 163.859547,59.6428341 C163.859547,61.4488113 165.389122,62.6350334 168.395768,62.6350334 M180,52.7302561 L180,65.5755596 C176.254984,67.0714978 171.929773,68 167.340717,68 C160.167036,68 156,65.3175167 156,59.9522272 C156,54.7939532 160.536221,52.1628202 166.918697,52.2144933 C168.923458,52.2661665 170.663713,52.4722133 172.193288,52.9366258 L172.193288,51.9567734 C172.193288,49.8414031 170.716218,48.3454649 167.024037,48.3454649 C164.070227,48.3454649 161.538106,49.4806598 160.219541,50.4605123 C158.53179,49.53201 157.213225,47.8297021 156.84404,45.5599583 C158.268276,44.32174 162.224301,42 167.709902,42 C174.988924,42 180,45.0952227 180,52.7302561" id="Fill-15" fill="#FFFFFF"></path>
                <g id="Group-19" transform="translate(183.000000, 33.000000)">
                    <mask id="mask-6" fill="white">
                        <use xlink:href="#path-5"></use>
                    </mask>
                    <g id="Clip-18"></g>
                    <path d="M0.2047,26.6275421 L0.2047,0.331747664 C1.5727,0.0733364486 2.94103333,0.0229626168 4.20336667,0.0229626168 C5.52003333,0.0229626168 6.83703333,0.0733364486 8.09936667,0.331747664 L8.09936667,25.5435234 C8.09936667,27.1947383 8.83803333,28.024271 10.1517,28.024271 C11.1540333,28.024271 11.7320333,27.7655327 12.3097,27.2990841 C13.7840333,28.5914673 14.6290333,30.5550654 14.8377,32.9818411 C13.5753667,34.0158131 11.5743667,34.8917944 8.5747,34.8917944 C3.83403333,34.8917944 0.2047,32.672729 0.2047,26.6275421" id="Fill-17" fill="#FFFFFF" mask="url(#mask-6)"></path>
                </g>
                <path d="M126,79.7931034 L126,85.898402 C125.637831,85.979815 125.235977,86 124.873808,86 C124.47162,86 124.089775,85.979815 123.72794,85.898402 L123.72794,80.4827586 C123.72794,79.1034483 123.124658,78.1093356 121.576269,78.1093356 C120.651504,78.1093356 120.00787,78.5150547 119.545655,78.9005887 C119.605683,79.1845248 119.646035,79.4889823 119.646035,79.7931034 L119.646035,85.898402 C119.283866,85.979815 118.882012,86 118.519843,86 C118.117655,86 117.73581,85.979815 117.353632,85.898402 L117.353632,80.4827586 C117.353632,79.1034483 116.770693,78.1093356 115.222304,78.1093356 C114.47829,78.1093356 113.774628,78.3327166 113.27206,78.6368377 L113.27206,85.898402 C112.909891,85.979815 112.508037,86 112.125525,86 C111.764023,86 111.381845,85.979815 111,85.898402 L111,77.5212784 C111.764023,76.8521447 113.493163,76 115.483759,76 C116.851064,76 117.896552,76.4259041 118.600547,77.1155593 C119.384579,76.5069807 120.55079,76 121.837724,76 C124.592343,76 126,77.7039529 126,79.7931034" id="Fill-20" fill="#FFFFFF"></path>
                <path d="M132.093312,84.2670896 C132.766333,84.2670896 133.382934,84.1474874 133.925134,83.9680841 L133.925134,81.9361681 C133.345734,81.6771401 132.654111,81.5578683 131.906378,81.5578683 C130.8598,81.5578683 130.149268,81.9361681 130.149268,82.8325239 C130.149268,83.6895629 130.784779,84.2670896 132.093312,84.2670896 M136,79.9042522 L136,85.0639971 C134.953112,85.6015462 133.401845,86 131.906378,86 C129.289623,86 128,84.8247927 128,82.9323025 C128,80.9803416 129.588778,79.9240757 131.738045,79.9442297 C132.57909,79.9442297 133.308223,80.0635015 133.925134,80.3027059 L133.925134,79.7648264 C133.925134,78.6295966 133.214911,77.9522913 131.794466,77.9522913 C130.728978,77.9522913 129.831822,78.3903922 129.327133,78.7888459 C128.803844,78.509664 128.448578,77.9919384 128.354956,77.3347871 C128.878555,76.7969075 130.224289,76 131.943889,76 C134.2804,76 136,77.1154062 136,79.9042522" id="Fill-22" fill="#FFFFFF"></path>
                <path d="M147,76.2278824 C145.757984,81.9214808 143.645835,85.7164786 139.629284,89 C138.86354,88.8105177 138.366321,88.2027263 138.138658,87.5955644 C139.194904,86.6657789 140.147105,85.7356787 140.788888,84.8058932 C138.86354,81.9592514 137.807293,79.2643213 137,76.1901119 C137.372914,76.0761706 138.014697,76 138.61493,76 C138.905089,76 139.256713,76.0380853 139.567131,76.0761706 C140.105899,78.3915065 140.871643,80.5362452 142.030904,82.7562104 C142.0934,82.8890369 142.155553,83.0221781 142.196758,83.1358046 C142.258911,83.0029781 142.300117,82.8704663 142.362269,82.7562104 C143.480324,80.6498717 144.101847,78.3723064 144.598379,76.0761706 C144.888538,76.0380853 145.240162,76 145.530321,76 C146.047799,76 146.58588,76.0950559 147,76.2278824" id="Fill-24" fill="#FFFFFF"></path>
                <path d="M155.72921,81.0098918 C155.72921,79.2010024 154.693098,77.9483645 152.999835,77.9483645 C151.306902,77.9483645 150.27079,79.2010024 150.27079,81.0098918 C150.27079,82.7993274 151.306902,84.031522 152.999835,84.031522 C154.693098,84.031522 155.72921,82.7993274 155.72921,81.0098918 M148,81.0098918 C148,78.0875099 150.131695,76 153.039812,76 C155.94826,76 158,78.0673965 158,81.0098918 C158,83.9124901 155.868636,86 152.960188,86 C150.05174,86 148,83.9520575 148,81.0098918" id="Fill-26" fill="#FFFFFF"></path>
                <path d="M166,76.3047362 C166,77.0365751 165.802947,77.7680769 165.409494,78.2966459 C164.957316,78.1749536 164.484911,78.1136019 163.993584,78.1136019 C163.265728,78.1136019 162.655973,78.2561942 162.242619,78.4999157 L162.242619,85.8981965 C161.888641,85.979437 161.495188,86 161.121636,86 C160.747757,86 160.373879,85.979437 160,85.8981965 L160,77.3821001 C160.708281,76.7318389 162.144418,76 163.934533,76 C164.741015,76 165.409494,76.0812405 166,76.3047362" id="Fill-28" fill="#FFFFFF"></path>
                <path d="M167.349352,85.898958 L167.349352,76.3571838 C167.739945,76.276551 168.130198,76.2564764 168.520791,76.2564764 C168.890593,76.2564764 169.301636,76.276551 169.671097,76.3571838 L169.671097,85.898958 C169.301636,85.9795909 168.911043,86 168.520791,86 C168.150988,86 167.739945,85.9795909 167.349352,85.898958 M167,73.4523946 C167,72.6453972 167.677914,72 168.520791,72 C169.322086,72 170,72.6453972 170,73.4523946 C170,74.2590575 169.322086,74.9047892 168.520791,74.9047892 C167.677914,74.9047892 167,74.2590575 167,73.4523946" id="Fill-30" fill="#FFFFFF"></path>
                <path d="M172,84.8073727 C172.1789,84.0912028 172.556835,83.5547349 173.034782,83.2566605 C173.611751,83.6740965 174.447828,84.1907808 175.940422,84.1907808 C177.27392,84.1907808 177.751537,83.6938802 177.751537,83.0575046 C177.751537,82.4217884 177.214177,82.0637035 175.522218,81.8051965 C173.850394,81.5466895 172.258448,80.9304273 172.258448,78.9424954 C172.258448,77.1926273 173.83092,76 176.218674,76 C177.930437,76 179.144779,76.4771169 179.761687,76.9146663 C179.662004,77.610393 179.363288,78.1669744 178.905805,78.5247296 C178.248958,78.1471907 177.27392,77.8088895 176.139456,77.8088895 C174.945249,77.8088895 174.427693,78.1870878 174.427693,78.7832366 C174.427693,79.3998285 174.845897,79.6979029 176.457647,79.9564099 C178.507736,80.274268 180,80.9703245 180,82.8388948 C180,84.8073727 178.487602,86 175.900483,86 C173.790981,86 172.53703,85.2643762 172,84.8073727" id="Fill-32" fill="#FFFFFF"></path>
                <path d="M189,85 C188.425592,85.4900813 187.475143,86 186.187733,86 C184.168275,86 182.683156,85.0982114 182.683156,82.8627642 L182.683156,78.3723577 L181.079149,78.3723577 C181.019705,78.078374 181,77.7843902 181,77.4507317 C181,77.156748 181.019705,76.8627642 181.079149,76.5684553 L182.683156,76.5684553 L182.683156,74.0982114 C183.059198,74.0195122 183.435896,74 183.811938,74 C184.18798,74 184.544645,74.0195122 184.900981,74.0982114 L184.900981,76.5684553 L188.405887,76.5684553 C188.485365,76.8627642 188.504742,77.156748 188.504742,77.4507317 C188.504742,77.7645528 188.485365,78.0585366 188.405887,78.3723577 L184.900981,78.3723577 L184.900981,82.3528455 C184.900981,83.7255285 185.554538,84.0780488 186.485283,84.0780488 C187.158545,84.0780488 187.75233,83.7255285 188.049222,83.4507317 C188.524775,83.7645528 188.920851,84.3921951 189,85" id="Fill-34" fill="#FFFFFF"></path>
                <path d="M193.093312,84.2670896 C193.766333,84.2670896 194.382934,84.1474874 194.924824,83.9680841 L194.924824,81.9361681 C194.345734,81.6771401 193.654111,81.5578683 192.906378,81.5578683 C191.8598,81.5578683 191.149268,81.9361681 191.149268,82.8325239 C191.149268,83.6895629 191.784779,84.2670896 193.093312,84.2670896 M197,79.9042522 L197,85.0639971 C195.953112,85.6015462 194.401845,86 192.906378,86 C190.289623,86 189,84.8247927 189,82.9323025 C189,80.9803416 190.588468,79.9240757 192.738045,79.9442297 C193.57909,79.9442297 194.308223,80.0635015 194.924824,80.3027059 L194.924824,79.7648264 C194.924824,78.6295966 194.214601,77.9522913 192.794156,77.9522913 C191.728978,77.9522913 190.831512,78.3903922 190.326823,78.7888459 C189.803844,78.509664 189.448268,77.9919384 189.354956,77.3347871 C189.878555,76.7969075 191.224289,76 192.943889,76 C195.2804,76 197,77.1154062 197,79.9042522" id="Fill-36" fill="#FFFFFF"></path>
                <path d="M54.3234745,60.0936487 C53.2791019,60.9329229 52.0104817,61.6023979 49.8308344,61.6023979 C45.766972,61.6023979 43.9185162,58.5829553 43.9185162,54.948477 C43.9185162,51.2145172 45.924714,48.3976021 49.7760258,48.3976021 C51.6759483,48.3976021 53.1541114,49.1659106 54.2105151,50.0868438 C54.2258883,50.0777706 54.2395905,50.0628645 54.2549636,50.0534673 C55.0557049,47.9309786 56.3350195,46.0482826 58,44.5301361 C56.4222455,43.3000648 53.2346534,42 49.5668171,42 C41.8060429,42 36,47.0677252 36,55.051523 C36,63.2384964 41.2780082,68 49.7760258,68 C53.3649911,68 56.1154506,66.7537265 57.9572225,65.3697343 C56.3657658,63.9079715 55.1225448,62.1143876 54.3234745,60.0936487" id="Fill-38" fill="#FFFFFF"></path>
                <path d="M65.6660229,53.8943383 L74.611833,51.0614061 C74.4581282,49.7735319 73.4821684,47.973898 70.6519826,47.973898 C67.4137628,47.973898 65.869877,50.2383531 65.6660229,53.8943383 M80.8362228,61.338649 C81.8079493,63.0316935 81.0778518,65.2368236 79.3411839,66.1260468 C77.3036194,67.1697758 74.5756863,68 71.0662038,68 C63.6076171,68 58,63.3641743 58,55.0785567 C58,47.405421 63.4539124,42 70.8089437,42 C77.4628601,42 80.7802118,45.9594554 81.890012,50.3217993 C82.358616,52.1638082 81.2882189,54.0540595 79.4714421,54.6081942 L66.2808418,58.6308861 C67.1565028,60.7916855 68.9576485,61.9759039 72.0421636,61.9759039 C74.869093,61.9759039 77.3384635,60.5840479 79.1396093,59.2997593 C79.8218368,59.8675844 80.3933448,60.566446 80.8362228,61.338649" id="Fill-40" fill="#FFFFFF"></path>
            </g>
        </g>
    </g>
</svg>