<?xml version="1.0" encoding="UTF-8"?>
<svg width="155px" height="155px" viewBox="0 0 155 155" version="1.1" xmlns="http://www.w3.org/2000/svg" xmlns:xlink="http://www.w3.org/1999/xlink">
    <!-- Generator: Sketch 57.1 (83088) - https://sketch.com -->
    <title>icn_auto-care-center_24</title>
    <desc>Created with Sketch.</desc>
    <g id="Icons" stroke="none" stroke-width="1" fill="none" fill-rule="evenodd">
        <g id="Icons-vector" transform="translate(-1473.000000, -1959.000000)">
            <g id="icn_auto-care-center_24" transform="translate(1450.000000, 1937.000000)">
                <rect id="Bounding-box" fill="#D8D8D8" opacity="0" x="0" y="0" width="200" height="200"></rect>
                <path d="M50.6507538,22 L150.349246,22 C151.64741,22 152.81574,22.421897 153.854271,23.2657035 C154.892803,24.1095101 155.541875,25.115572 155.801508,26.2839196 L155.801508,26.4786432 L165.927136,77.3015075 L172.547739,77.3015075 C174.105535,77.3015075 175.40368,77.8532189 176.442211,78.9566583 C177.480742,80.0600976 178,81.3906957 178,82.9484925 L178,149.349246 C178,150.907043 177.480742,152.205187 176.442211,153.243719 C175.40368,154.28225 174.105535,154.801508 172.547739,154.801508 L155.801508,154.801508 L155.801508,171.547739 C155.801508,173.105535 155.28225,174.40368 154.243719,175.442211 C153.205187,176.480742 151.907043,177 150.349246,177 L128.150754,177 C126.592957,177 125.294813,176.480742 124.256281,175.442211 C123.21775,174.40368 122.698492,173.105535 122.698492,171.547739 L122.698492,154.801508 L78.3015075,154.801508 L78.3015075,171.547739 C78.3015075,173.105535 77.7822497,174.40368 76.7437186,175.442211 C75.7051874,176.480742 74.407043,177 72.8492462,177 L50.6507538,177 C49.092957,177 47.7948126,176.480742 46.7562814,175.442211 C45.7177503,174.40368 45.1984925,173.105535 45.1984925,171.547739 L45.1984925,154.801508 L28.4522613,154.801508 C26.8944646,154.801508 25.5963201,154.28225 24.5577889,153.243719 C23.5192578,152.205187 23,150.907043 23,149.349246 L23,82.9484925 C23,81.3906957 23.5192578,80.0600976 24.5577889,78.9566583 C25.5963201,77.8532189 26.8944646,77.3015075 28.4522613,77.3015075 L35.0728643,77.3015075 L45.1984925,26.4786432 C45.4581253,25.1804793 46.1071975,24.1095101 47.1457286,23.2657035 C48.1842598,22.421897 49.3525898,22 50.6507538,22 Z M55.129397,33.0992462 L46.3668342,77.3015075 L154.633166,77.3015075 L145.870603,33.0992462 L55.129397,33.0992462 Z M34.0992462,143.702261 L166.900754,143.702261 L166.900754,88.4007538 L34.0992462,88.4007538 L34.0992462,143.702261 Z M122.698492,116.051508 C122.698492,111.507934 124.321173,107.6135 127.566583,104.36809 C130.811993,101.122681 134.706426,99.5 139.25,99.5 C143.793574,99.5 147.688007,101.122681 150.933417,104.36809 C154.178827,107.6135 155.801508,111.507934 155.801508,116.051508 C155.801508,120.724898 154.178827,124.684238 150.933417,127.929648 C147.688007,131.175058 143.793574,132.797739 139.25,132.797739 C134.706426,132.797739 130.811993,131.175058 127.566583,127.929648 C124.321173,124.684238 122.698492,120.724898 122.698492,116.051508 Z M133.797739,116.051508 C133.797739,117.609304 134.316996,118.939902 135.355528,120.043342 C136.394059,121.146781 137.692203,121.698492 139.25,121.698492 C140.807797,121.698492 142.138395,121.146781 143.241834,120.043342 C144.345274,118.939902 144.896985,117.609304 144.896985,116.051508 C144.896985,114.493711 144.345274,113.195566 143.241834,112.157035 C142.138395,111.118504 140.807797,110.599246 139.25,110.599246 C137.692203,110.599246 136.394059,111.118504 135.355528,112.157035 C134.316996,113.195566 133.797739,114.493711 133.797739,116.051508 Z M45.1984925,116.051508 C45.1984925,111.507934 46.8211731,107.6135 50.0665829,104.36809 C53.3119928,101.122681 57.2064262,99.5 61.75,99.5 C66.2935738,99.5 70.1880072,101.122681 73.4334171,104.36809 C76.6788269,107.6135 78.3015075,111.507934 78.3015075,116.051508 C78.3015075,120.724898 76.6788269,124.684238 73.4334171,127.929648 C70.1880072,131.175058 66.2935738,132.797739 61.75,132.797739 C57.2064262,132.797739 53.3119928,131.175058 50.0665829,127.929648 C46.8211731,124.684238 45.1984925,120.724898 45.1984925,116.051508 Z M56.1030151,116.051508 C56.1030151,117.609304 56.6547265,118.939902 57.7581658,120.043342 C58.8616052,121.146781 60.1922033,121.698492 61.75,121.698492 C63.3077967,121.698492 64.6059412,121.146781 65.6444724,120.043342 C66.6830035,118.939902 67.2022613,117.609304 67.2022613,116.051508 C67.2022613,114.493711 66.6830035,113.195566 65.6444724,112.157035 C64.6059412,111.118504 63.3077967,110.599246 61.75,110.599246 C60.1922033,110.599246 58.8616052,111.118504 57.7581658,112.157035 C56.6547265,113.195566 56.1030151,114.493711 56.1030151,116.051508 Z" id="" fill="#FFFFFF"></path>
            </g>
        </g>
    </g>
</svg>