<svg height="512" viewBox="0 0 58 59" width="512" xmlns="http://www.w3.org/2000/svg"><g id="Page-1" fill="none" fill-rule="evenodd"><g id="035---Maps" fill-rule="nonzero"><path id="Shape" d="m58 13.92c.0036982-1.8289624-.3886216-3.6370448-1.15-5.3-1.4974581-3.32405934-4.3219135-5.86655759-7.7845817-7.00746967-3.4626681-1.14091209-7.24529-.77537503-10.4254183 1.00746967-7.1669201-2.51328464-15.0337783-2.11473546-21.91 1.11-2.2624711 1.0470826-4.3745674 2.39236686-6.28 4-3.8392756 3.1937756-6.78508385 7.3282433-8.55 12-1.03978167 2.6922672-1.6570726 5.5291069-1.83 8.41-.07.58-.07 1.22-.07 1.86-.00721667 4.8376237 1.19963926 9.599719 3.51 13.85 1.58729518 2.9077401 3.65669336 5.5249201 6.12 7.74 5.3260384 4.7674663 12.2218954 7.4054788 19.37 7.41 4.835575-.0091934 9.5937049-1.2150444 13.85-3.51 5.4470982-2.9652386 9.8001111-7.5986388 12.42-13.22 1.1729118-2.4843 1.9812396-5.1248373 2.4-7.84.2214489-1.4662441.331763-2.9471284.33-4.43.0015188-2.8530021-.4197224-5.6904831-1.25-8.42.8258966-2.4694954 1.2479859-5.056059 1.25-7.66z" fill="#24ae5f"/><path id="Shape" d="m16.6 44.62-7 7c-2.46330664-2.2150799-4.53270482-4.8322599-6.12-7.74l6.15-6.15 1.81 1.81z" fill="#2980ba"/><path id="Shape" d="m9.66 37.7-6.15 6.15c-2.31036074-4.250281-3.51721667-9.0123763-3.51-13.85 0-.64 0-1.28.07-1.91l6.29 6.29z" fill="#3b97d3"/><path id="Shape" d="m38.64 2.65c-2.4245931 1.36138434-4.3487842 3.46432542-5.49 6-.7571583 1.6537588-1.1493789 3.4511524-1.15 5.27.0006495 1.9477697.2356722 3.8883851.7 5.78l-16-16c6.8927586-3.21322131 14.7718906-3.59029918 21.94-1.05z" fill="#e57e25"/><path id="Shape" d="m55.27 42.27c-2.6198889 5.6213612-6.9729018 10.2547614-12.42 13.22l-13.43-13.43 10-10c1.6632939 1.8563197 3.5357387 3.5140038 5.58 4.94.9746391-.6778443 1.9033363-1.4194658 2.78-2.22z" fill="#bdc3c7"/><path id="Shape" d="m58 30c.001763 1.4828716-.1085511 2.9637559-.33 4.43-.4187604 2.7151627-1.2270882 5.3557-2.4 7.84l-7.49-7.49c2.1899228-1.9573621 4.1220831-4.185227 5.75-6.63.1191844-.16042.2293545-.3273444.33-.5 1.2041346-1.8996381 2.1744907-3.9377215 2.89-6.07.8302776 2.7295169 1.2515188 5.5669979 1.25 8.42z" fill="#f3d55b"/><path id="Shape" d="m35.4 58.28c-2.0987632.4840535-4.246147.7256341-6.4.72-4.6209327.0079737-9.1758935-1.096467-13.28-3.22l8.59-8.59z" fill="#3b97d3"/><path id="Shape" d="m42.85 55.49c-2.3388518 1.2777333-4.8471912 2.217098-7.45 2.79l-11.09-11.09-8.59 8.59c-2.2016734-1.1290722-4.2485534-2.5373525-6.09-4.19l7-7-5.13-5.11-1.84-1.78-3.3-3.32-6.29-6.29c.1729274-2.8808931.79021833-5.7177328 1.83-8.41l19.83 19.83 10.27-10.26-21.55-21.54c1.9054326-1.60763314 4.0175289-2.9529174 6.28-4l16 16c.7175798 2.8126076 1.8788089 5.4928864 3.44 7.94.1.18.22.33.33.5.904464 1.3644601 1.907117 2.6612247 3 3.88l-10 10z" fill="#f3d55b"/><path id="Shape" d="m56.85 8.62c-2.1018195-4.65909598-6.7387555-7.65420726-11.85-7.65420726s-9.7481805 2.99511128-11.85 7.65420726c-.7613784 1.6629552-1.1536982 3.4710376-1.15 5.3.0006495 1.9477697.2356722 3.8883851.7 5.78.7175798 2.8126076 1.8788089 5.4928864 3.44 7.94.1.18.22.33.33.5.904464 1.3644601 1.907117 2.6612247 3 3.88 1.6454348 1.8673895 3.5010659 3.5384642 5.53 4.98.9746391-.6778443 1.9033363-1.4194658 2.78-2.22 2.1899228-1.9573621 4.1220831-4.185227 5.75-6.63.1191844-.16042.2293545-.3273444.33-.5 1.2041346-1.8996381 2.1744907-3.9377215 2.89-6.07.8258966-2.4694954 1.2479859-5.056059 1.25-7.66.0036982-1.8289624-.3886216-3.6370448-1.15-5.3zm-11.85 13.38c-4.418278 0-8-3.581722-8-8s3.581722-8 8-8 8 3.581722 8 8c0 2.1217319-.8428547 4.1565632-2.3431458 5.6568542-1.500291 1.5002911-3.5351223 2.3431458-5.6568542 2.3431458z" fill="#e64c3c"/><circle id="Oval" cx="45" cy="14" fill="#f9eab0" r="8"/><path id="Shape" d="m45 23c-4.9705627 0-9-4.0294373-9-9 0-4.97056275 4.0294373-9 9-9s9 4.02943725 9 9c0 2.3869484-.9482116 4.6761336-2.636039 6.363961s-3.9770126 2.636039-6.363961 2.636039zm0-16c-3.8659932 0-7 3.1340068-7 7s3.1340068 7 7 7 7-3.1340068 7-7c0-1.8565154-.7374979-3.6369928-2.0502525-4.94974747-1.3127547-1.31275465-3.0932321-2.05025253-4.9497475-2.05025253z" fill="#c03a2b"/></g></g></svg>